<?xml version="1.0" encoding="UTF-8"?>
<!DOCTYPE svg PUBLIC "-//W3C//DTD SVG 1.1//EN" "http://www.w3.org/Graphics/SVG/1.1/DTD/svg11.dtd">
<svg xmlns="http://www.w3.org/2000/svg" version="1.1" width="753px" height="629px" style="shape-rendering:geometricPrecision; text-rendering:geometricPrecision; image-rendering:optimizeQuality; fill-rule:evenodd; clip-rule:evenodd" xmlns:xlink="http://www.w3.org/1999/xlink">
<g><path style="opacity:0.004" fill="#504733" d="M 534.5,23.5 C 535.833,24.1667 535.833,24.1667 534.5,23.5 Z"/></g>
<g><path style="opacity:0.004" fill="#4f4534" d="M 531.5,24.5 C 532.833,25.1667 532.833,25.1667 531.5,24.5 Z"/></g>
<g><path style="opacity:0.008" fill="#504737" d="M 534.5,25.5 C 535.833,26.1667 535.833,26.1667 534.5,25.5 Z"/></g>
<g><path style="opacity:1" fill="#242520" d="M 587.5,68.5 C 587.528,71.2514 588.528,73.5847 590.5,75.5C 590.154,76.6956 589.654,76.6956 589,75.5C 588.293,77.0806 587.46,78.5806 586.5,80C 588.112,80.7203 589.612,80.5536 591,79.5C 591.684,80.7839 591.517,81.9505 590.5,83C 594.121,84.8234 594.787,87.1568 592.5,90C 590.423,90.1922 588.423,90.6922 586.5,91.5C 588.472,96.0018 587.638,96.3351 584,92.5C 583.25,93.1258 582.416,93.6258 581.5,94C 583.679,94.4419 584.345,95.4419 583.5,97C 585.101,97.2734 586.601,97.7734 588,98.5C 588.333,97.5 588.667,96.5 589,95.5C 590.019,97.2694 590.186,98.9361 589.5,100.5C 590.025,101.192 590.692,101.692 591.5,102C 590.354,104.557 591.354,105.89 594.5,106C 592.666,108.543 590.333,108.71 587.5,106.5C 587.167,106.833 586.833,107.167 586.5,107.5C 587.325,108.386 588.325,108.719 589.5,108.5C 589.413,111.598 589.913,111.932 591,109.5C 592.044,110.623 592.71,111.956 593,113.5C 594.84,112.167 595.34,112.334 594.5,114C 595.676,115.914 596.676,115.748 597.5,113.5C 599.017,114.911 600.351,114.744 601.5,113C 600.08,111.544 598.747,110.044 597.5,108.5C 596.105,106.081 596.605,104.081 599,102.5C 599.5,103 600,103.5 600.5,104C 596.533,107.604 597.2,108.271 602.5,106C 601.304,105.346 601.304,104.846 602.5,104.5C 603.192,105.025 603.692,105.692 604,106.5C 605.019,105.313 606.186,104.313 607.5,103.5C 608.521,104.002 608.688,104.668 608,105.5C 606.352,106.717 604.519,107.55 602.5,108C 603.634,109.016 603.301,109.683 601.5,110C 604.473,110.491 606.307,111.658 607,113.5C 608.765,112.768 609.932,111.435 610.5,109.5C 612.317,111.795 613.817,114.795 615,118.5C 615.333,118.167 615.667,117.833 616,117.5C 616.549,120.552 615.716,123.219 613.5,125.5C 613.953,128.751 615.619,131.085 618.5,132.5C 617.302,132.94 616.135,133.273 615,133.5C 614.027,131.608 613.36,129.608 613,127.5C 612,129.5 611,131.5 610,133.5C 609.667,133.167 609.333,132.833 609,132.5C 608.805,134.207 608.805,135.874 609,137.5C 606.973,137.014 604.807,137.014 602.5,137.5C 602.296,141.542 603.963,142.875 607.5,141.5C 609.056,142.547 610.723,143.214 612.5,143.5C 611.546,146.394 610.379,149.061 609,151.5C 610.676,150.939 612.009,149.939 613,148.5C 617.389,151.103 616.889,152.769 611.5,153.5C 611.072,156.246 609.406,157.913 606.5,158.5C 606.167,157.833 605.833,157.167 605.5,156.5C 604.749,157.376 604.249,158.376 604,159.5C 603.667,159.167 603.333,158.833 603,158.5C 602.333,159.5 602.333,160.5 603,161.5C 604.439,159.986 605.939,159.653 607.5,160.5C 604.869,162.005 605.203,162.671 608.5,162.5C 608.343,161.127 608.51,159.793 609,158.5C 609.611,160.75 610.944,162.417 613,163.5C 614.073,162.72 615.24,162.887 616.5,164C 614.099,164.805 614.266,165.638 617,166.5C 617.309,165.234 617.809,164.067 618.5,163C 617.833,162.667 617.167,162.333 616.5,162C 618.405,161.174 618.739,160.007 617.5,158.5C 616.158,160.005 614.492,160.672 612.5,160.5C 612.343,159.127 612.51,157.793 613,156.5C 614.682,156.807 616.348,157.14 618,157.5C 619.653,157.18 620.653,156.18 621,154.5C 623.768,157.088 625.768,156.755 627,153.5C 627.667,155.5 627.667,157.5 627,159.5C 625.155,160.05 623.655,161.05 622.5,162.5C 623.557,162.906 624.891,162.906 626.5,162.5C 625.365,165.489 625.198,168.489 626,171.5C 624.195,173.32 622.028,174.486 619.5,175C 621.473,175.495 623.473,175.662 625.5,175.5C 626.765,180.358 626.099,185.024 623.5,189.5C 622.624,190.251 621.624,190.751 620.5,191C 623.188,191.782 624.188,193.282 623.5,195.5C 622.833,194.833 622.167,194.167 621.5,193.5C 620.757,194.908 619.923,196.241 619,197.5C 618.28,199.112 618.446,200.612 619.5,202C 618.285,204.096 617.451,203.929 617,201.5C 616.323,203.689 615.156,204.022 613.5,202.5C 612.416,201.335 611.583,200.002 611,198.5C 609.601,199.227 608.101,199.727 606.5,200C 609.028,201.316 609.028,202.483 606.5,203.5C 604.576,203.433 602.576,203.1 600.5,202.5C 601.609,201.035 601.109,200.035 599,199.5C 597.632,200.993 597.465,202.493 598.5,204C 597.551,204.617 596.718,204.451 596,203.5C 595.667,204.167 595.333,204.833 595,205.5C 594.365,204.034 593.531,202.7 592.5,201.5C 595.202,199.653 598.202,198.487 601.5,198C 600.584,197.626 599.75,197.126 599,196.5C 597.165,197.119 594.999,197.286 592.5,197C 592.833,196.667 593.167,196.333 593.5,196C 592.584,195.626 591.75,195.126 591,194.5C 588.642,196.024 586.809,198.024 585.5,200.5C 583.84,197.551 584.84,195.051 588.5,193C 587.115,191.035 587.282,189.202 589,187.5C 589.667,188.833 590.333,188.833 591,187.5C 590.923,188.738 591.089,189.738 591.5,190.5C 592.634,188.414 594.467,186.414 597,184.5C 598.333,185.167 599.667,185.833 601,186.5C 601.974,184.122 602.641,184.456 603,187.5C 603.309,186.234 603.809,185.067 604.5,184C 603.39,181.263 603.223,178.429 604,175.5C 605.754,177.25 607.921,177.917 610.5,177.5C 610.051,174.359 609.051,171.359 607.5,168.5C 608.025,167.808 608.692,167.308 609.5,167C 608.167,166.333 606.833,165.667 605.5,165C 606.696,164.346 606.696,163.846 605.5,163.5C 604.9,165.576 604.567,167.576 604.5,169.5C 606.993,171.248 606.827,172.914 604,174.5C 603.667,173.167 603.333,171.833 603,170.5C 602.824,174.688 602.324,178.688 601.5,182.5C 600.821,129.963 578.821,89.1296 535.5,60C 489.391,32.8043 442.057,30.471 393.5,53C 357.967,72.54 334.133,101.707 322,140.5C 321.202,142.259 321.369,143.926 322.5,145.5C 343.118,148.756 363.784,151.756 384.5,154.5C 383.207,155.158 381.707,155.492 380,155.5C 374.814,154.709 369.647,154.209 364.5,154C 366.766,154.932 368.766,156.266 370.5,158C 369.638,160.734 368.805,160.901 368,158.5C 366.826,160.671 364.993,161.671 362.5,161.5C 362.728,159.645 362.061,158.812 360.5,159C 361.184,160.693 362.184,162.193 363.5,163.5C 363.062,164.506 362.396,164.506 361.5,163.5C 360.238,160.885 359.072,158.218 358,155.5C 357.748,157.931 358.248,160.265 359.5,162.5C 359,162.833 358.5,163.167 358,163.5C 356.989,163.108 356.489,162.441 356.5,161.5C 354.235,162.979 351.901,164.313 349.5,165.5C 350.557,165.906 351.891,165.906 353.5,165.5C 353.281,166.675 353.614,167.675 354.5,168.5C 355.609,167.41 356.609,167.41 357.5,168.5C 356.289,169.72 356.289,170.887 357.5,172C 356.167,171.667 354.833,171.333 353.5,171C 352.892,173.184 353.559,175.184 355.5,177C 352.044,177.855 349.544,176.689 348,173.5C 346.383,174.536 346.216,175.703 347.5,177C 345.527,177.495 343.527,177.662 341.5,177.5C 332.687,176.857 324.021,175.857 315.5,174.5C 314.945,199.741 320.612,223.408 332.5,245.5C 340.769,247.47 349.435,248.136 358.5,247.5C 385.192,247.184 411.859,247.517 438.5,248.5C 439.713,248.253 440.38,247.586 440.5,246.5C 440.944,244.887 441.944,243.72 443.5,243C 442.101,242.405 440.768,242.572 439.5,243.5C 436.374,239.94 437.04,237.273 441.5,235.5C 440.382,233.322 440.549,230.989 442,228.5C 442.333,229.5 442.667,230.5 443,231.5C 445.293,229.152 445.46,226.985 443.5,225C 444.448,224.517 445.448,224.351 446.5,224.5C 446.157,222.517 446.824,221.183 448.5,220.5C 454.167,220.5 459.833,220.5 465.5,220.5C 469.523,221.246 473.523,221.58 477.5,221.5C 476.833,221.833 476.167,222.167 475.5,222.5C 477.996,223.841 479.829,225.841 481,228.5C 484.523,224.553 485.357,224.553 483.5,228.5C 485.578,230.39 486.911,232.724 487.5,235.5C 486.15,236.95 484.484,237.617 482.5,237.5C 481.862,235.54 481.862,233.707 482.5,232C 480.893,232.019 479.226,232.185 477.5,232.5C 477.997,234.597 478.33,236.43 478.5,238C 477.692,239.706 476.359,240.539 474.5,240.5C 474.067,244.131 472.234,245.464 469,244.5C 464.031,247.708 464.531,249.375 470.5,249.5C 478.167,249.5 485.833,249.5 493.5,249.5C 485.343,250.329 477.01,250.829 468.5,251C 465.007,252.088 464.841,253.255 468,254.5C 469.395,253.185 470.395,253.519 471,255.5C 471.414,255.043 471.914,254.709 472.5,254.5C 473.354,255.522 474.354,256.355 475.5,257C 473.974,258.589 472.807,260.423 472,262.5C 470.517,260.881 469.35,260.714 468.5,262C 469.98,261.942 470.813,263.109 471,265.5C 471.957,263.291 473.124,263.457 474.5,266C 472.212,266.822 469.878,267.489 467.5,268C 470.167,268.667 470.167,269.333 467.5,270C 468.191,271.067 468.691,272.234 469,273.5C 470.649,270.123 472.649,269.79 475,272.5C 475.667,273.5 475.667,274.5 475,275.5C 474.581,274.328 473.915,273.328 473,272.5C 472.979,274.438 473.146,276.438 473.5,278.5C 472.833,278.833 472.167,279.167 471.5,279.5C 472.522,280.354 473.355,281.354 474,282.5C 474.219,281.062 474.719,279.729 475.5,278.5C 476.72,279.711 477.887,279.711 479,278.5C 480.6,279.866 482.433,280.866 484.5,281.5C 483.145,282.675 483.312,283.675 485,284.5C 487.595,276.908 488.428,277.241 487.5,285.5C 482.88,286.694 486.213,286.861 497.5,286C 497.051,283.771 497.051,282.104 497.5,281C 498.618,279.926 499.618,278.76 500.5,277.5C 502.946,278.983 502.612,280.149 499.5,281C 501.022,282.916 502.022,285.083 502.5,287.5C 424.494,286.236 346.494,285.069 268.5,284C 267.944,284.383 267.611,284.883 267.5,285.5C 266.448,288.481 266.281,291.481 267,294.5C 266,293.167 265,291.833 264,290.5C 264,291.833 264,293.167 264,294.5C 262.605,293.185 261.605,293.519 261,295.5C 259.902,294.033 258.402,293.199 256.5,293C 257.5,292.667 258.5,292.333 259.5,292C 256.942,290.62 256.942,289.12 259.5,287.5C 259,286.5 258.5,285.5 258,284.5C 257.647,286.074 256.98,287.741 256,289.5C 254.513,288.747 254.346,287.914 255.5,287C 253.009,286.374 253.009,285.541 255.5,284.5C 254.753,284.264 253.92,283.93 253,283.5C 251.749,286.381 249.583,288.214 246.5,289C 251.461,290.299 254.794,293.299 256.5,298C 255.584,298.374 254.75,298.874 254,299.5C 250.405,298.372 247.405,299.372 245,302.5C 243.563,300.779 244.063,299.279 246.5,298C 245.139,296.416 244.472,294.582 244.5,292.5C 246.109,292.906 247.443,292.906 248.5,292.5C 242.792,289.957 242.458,287.457 247.5,285C 246.419,283.629 245.585,282.129 245,280.5C 243.919,282.767 242.419,282.934 240.5,281C 242.797,279.84 242.464,278.84 239.5,278C 240.471,276.796 241.471,276.296 242.5,276.5C 240.838,275.673 239.505,274.507 238.5,273C 239.738,273.077 240.738,272.911 241.5,272.5C 240.624,271.749 239.624,271.249 238.5,271C 241.047,270.933 243.214,270.099 245,268.5C 246.452,269.907 246.285,271.407 244.5,273C 245.167,273.667 245.833,273.667 246.5,273C 248.594,270.581 248.594,268.414 246.5,266.5C 248.832,263.236 248.166,260.403 244.5,258C 245.167,257.667 245.833,257.333 246.5,257C 244.559,256.696 242.893,255.863 241.5,254.5C 239.588,254.488 237.588,254.821 235.5,255.5C 234.752,253.668 233.752,252.001 232.5,250.5C 234.028,249.139 235.695,247.972 237.5,247C 254.818,245.952 272.152,245.452 289.5,245.5C 293.341,245.648 297.341,245.315 301.5,244.5C 277.494,182.041 285.994,124.374 327,71.5C 361.93,31.6243 406.096,10.9576 459.5,9.5C 510.652,11.4184 553.319,31.085 587.5,68.5 Z"/></g>
<g><path style="opacity:1" fill="#c23730" d="M 601.5,182.5 C 576.897,178.968 552.23,175.468 527.5,172C 518.266,127.428 490.932,106.095 445.5,108C 418.411,113.583 400.077,129.416 390.5,155.5C 388.591,154.652 386.591,154.318 384.5,154.5C 363.784,151.756 343.118,148.756 322.5,145.5C 321.369,143.926 321.202,142.259 322,140.5C 334.133,101.707 357.967,72.54 393.5,53C 442.057,30.471 489.391,32.8043 535.5,60C 578.821,89.1296 600.821,129.963 601.5,182.5 Z"/></g>
<g><path style="opacity:0.02" fill="#544839" d="M 614.5,106.5 C 615.833,107.167 615.833,107.167 614.5,106.5 Z"/></g>
<g><path style="opacity:0.008" fill="#4d4433" d="M 630.5,157.5 C 631.833,158.167 631.833,158.167 630.5,157.5 Z"/></g>
<g><path style="opacity:0.004" fill="#4a4233" d="M 631.5,172.5 C 632.525,172.897 632.692,173.563 632,174.5C 631.536,173.906 631.369,173.239 631.5,172.5 Z"/></g>
<g><path style="opacity:1" fill="#fdfdfd" d="M 341.5,177.5 C 356.623,180.143 371.956,182.309 387.5,184C 392.136,216.119 409.803,236.953 440.5,246.5C 440.38,247.586 439.713,248.253 438.5,248.5C 411.859,247.517 385.192,247.184 358.5,247.5C 349.932,246.807 341.266,246.14 332.5,245.5C 320.612,223.408 314.945,199.741 315.5,174.5C 324.021,175.857 332.687,176.857 341.5,177.5 Z"/></g>
<g><path style="opacity:0.008" fill="#4b4735" d="M 631.5,175.5 C 632.833,176.167 632.833,176.167 631.5,175.5 Z"/></g>
<g><path style="opacity:0.008" fill="#454130" d="M 157.5,176.5 C 158.833,177.167 158.833,177.167 157.5,176.5 Z"/></g>
<g><path style="opacity:0.012" fill="#484435" d="M 285.5,177.5 C 286.833,178.167 286.833,178.167 285.5,177.5 Z"/></g>
<g><path style="opacity:0.004" fill="#494234" d="M 285.5,179.5 C 286.833,180.167 286.833,180.167 285.5,179.5 Z"/></g>
<g><path style="opacity:0.016" fill="#444030" d="M 43.5,186.5 C 44.8333,187.167 44.8333,187.167 43.5,186.5 Z"/></g>
<g><path style="opacity:0.012" fill="#3d3a2a" d="M 164.5,192.5 C 165.833,193.167 165.833,193.167 164.5,192.5 Z"/></g>
<g><path style="opacity:1" fill="#252620" d="M 587.5,68.5 C 620.306,106.676 634.14,151.01 629,201.5C 626.623,218.363 621.79,234.363 614.5,249.5C 613.957,249.56 613.624,249.893 613.5,250.5C 631.154,251.5 648.821,251.833 666.5,251.5C 668.262,251.643 669.929,251.309 671.5,250.5C 686.455,251.318 701.455,251.818 716.5,252C 730.68,255.183 736.847,264.016 735,278.5C 731.363,289.083 723.863,294.416 712.5,294.5C 708.154,300.175 703.488,305.508 698.5,310.5C 697.761,310.631 697.094,310.464 696.5,310C 697.711,309.107 697.711,308.274 696.5,307.5C 695.28,306.289 694.113,306.289 693,307.5C 692.667,306.5 692.333,305.5 692,304.5C 690.022,305.816 688.522,305.316 687.5,303C 688.784,302.316 689.951,302.483 691,303.5C 692.688,302.675 692.855,301.675 691.5,300.5C 688.701,299.996 686.201,298.996 684,297.5C 683.667,298.5 683.333,299.5 683,300.5C 681.601,299.773 680.101,299.273 678.5,299C 682.899,298.334 683.732,296.167 681,292.5C 679.813,296.952 677.647,297.286 674.5,293.5C 674.586,292.504 674.252,291.671 673.5,291C 616.49,290.041 559.49,288.874 502.5,287.5C 502.022,285.083 501.022,282.916 499.5,281C 502.612,280.149 502.946,278.983 500.5,277.5C 499.618,278.76 498.618,279.926 497.5,281C 497.051,282.104 497.051,283.771 497.5,286C 486.213,286.861 482.88,286.694 487.5,285.5C 488.428,277.241 487.595,276.908 485,284.5C 483.312,283.675 483.145,282.675 484.5,281.5C 482.433,280.866 480.6,279.866 479,278.5C 477.887,279.711 476.72,279.711 475.5,278.5C 474.719,279.729 474.219,281.062 474,282.5C 473.355,281.354 472.522,280.354 471.5,279.5C 472.167,279.167 472.833,278.833 473.5,278.5C 473.146,276.438 472.979,274.438 473,272.5C 473.915,273.328 474.581,274.328 475,275.5C 475.667,274.5 475.667,273.5 475,272.5C 472.649,269.79 470.649,270.123 469,273.5C 468.691,272.234 468.191,271.067 467.5,270C 470.167,269.333 470.167,268.667 467.5,268C 469.878,267.489 472.212,266.822 474.5,266C 473.124,263.457 471.957,263.291 471,265.5C 470.813,263.109 469.98,261.942 468.5,262C 469.35,260.714 470.517,260.881 472,262.5C 472.807,260.423 473.974,258.589 475.5,257C 474.354,256.355 473.354,255.522 472.5,254.5C 471.914,254.709 471.414,255.043 471,255.5C 470.395,253.519 469.395,253.185 468,254.5C 464.841,253.255 465.007,252.088 468.5,251C 477.01,250.829 485.343,250.329 493.5,249.5C 524.075,249.836 554.575,249.836 585,249.5C 591.183,237.785 595.683,225.452 598.5,212.5C 598.291,211.914 597.957,211.414 597.5,211C 572.158,207.832 546.824,204.666 521.5,201.5C 516.587,217.591 506.921,230.091 492.5,239C 485.33,243.17 477.663,246.17 469.5,248C 470.056,248.383 470.389,248.883 470.5,249.5C 464.531,249.375 464.031,247.708 469,244.5C 472.234,245.464 474.067,244.131 474.5,240.5C 476.359,240.539 477.692,239.706 478.5,238C 478.33,236.43 477.997,234.597 477.5,232.5C 479.226,232.185 480.893,232.019 482.5,232C 481.862,233.707 481.862,235.54 482.5,237.5C 484.484,237.617 486.15,236.95 487.5,235.5C 486.911,232.724 485.578,230.39 483.5,228.5C 485.357,224.553 484.523,224.553 481,228.5C 479.829,225.841 477.996,223.841 475.5,222.5C 476.167,222.167 476.833,221.833 477.5,221.5C 473.523,221.58 469.523,221.246 465.5,220.5C 490.309,213.266 501.476,196.6 499,170.5C 493.375,148.699 479.375,137.032 457,135.5C 436.47,136.69 422.803,147.024 416,166.5C 411.446,194.191 422.279,212.191 448.5,220.5C 446.824,221.183 446.157,222.517 446.5,224.5C 445.448,224.351 444.448,224.517 443.5,225C 445.46,226.985 445.293,229.152 443,231.5C 442.667,230.5 442.333,229.5 442,228.5C 440.549,230.989 440.382,233.322 441.5,235.5C 437.04,237.273 436.374,239.94 439.5,243.5C 440.768,242.572 442.101,242.405 443.5,243C 441.944,243.72 440.944,244.887 440.5,246.5C 409.803,236.953 392.136,216.119 387.5,184C 371.956,182.309 356.623,180.143 341.5,177.5C 343.527,177.662 345.527,177.495 347.5,177C 346.216,175.703 346.383,174.536 348,173.5C 349.544,176.689 352.044,177.855 355.5,177C 353.559,175.184 352.892,173.184 353.5,171C 354.833,171.333 356.167,171.667 357.5,172C 356.289,170.887 356.289,169.72 357.5,168.5C 356.609,167.41 355.609,167.41 354.5,168.5C 353.614,167.675 353.281,166.675 353.5,165.5C 351.891,165.906 350.557,165.906 349.5,165.5C 351.901,164.313 354.235,162.979 356.5,161.5C 356.489,162.441 356.989,163.108 358,163.5C 358.5,163.167 359,162.833 359.5,162.5C 358.248,160.265 357.748,157.931 358,155.5C 359.072,158.218 360.238,160.885 361.5,163.5C 362.396,164.506 363.062,164.506 363.5,163.5C 362.184,162.193 361.184,160.693 360.5,159C 362.061,158.812 362.728,159.645 362.5,161.5C 364.993,161.671 366.826,160.671 368,158.5C 368.805,160.901 369.638,160.734 370.5,158C 368.766,156.266 366.766,154.932 364.5,154C 369.647,154.209 374.814,154.709 380,155.5C 381.707,155.492 383.207,155.158 384.5,154.5C 386.591,154.318 388.591,154.652 390.5,155.5C 400.077,129.416 418.411,113.583 445.5,108C 490.932,106.095 518.266,127.428 527.5,172C 552.23,175.468 576.897,178.968 601.5,182.5C 602.324,178.688 602.824,174.688 603,170.5C 603.333,171.833 603.667,173.167 604,174.5C 606.827,172.914 606.993,171.248 604.5,169.5C 604.567,167.576 604.9,165.576 605.5,163.5C 606.696,163.846 606.696,164.346 605.5,165C 606.833,165.667 608.167,166.333 609.5,167C 608.692,167.308 608.025,167.808 607.5,168.5C 609.051,171.359 610.051,174.359 610.5,177.5C 607.921,177.917 605.754,177.25 604,175.5C 603.223,178.429 603.39,181.263 604.5,184C 603.809,185.067 603.309,186.234 603,187.5C 602.641,184.456 601.974,184.122 601,186.5C 599.667,185.833 598.333,185.167 597,184.5C 594.467,186.414 592.634,188.414 591.5,190.5C 591.089,189.738 590.923,188.738 591,187.5C 590.333,188.833 589.667,188.833 589,187.5C 587.282,189.202 587.115,191.035 588.5,193C 584.84,195.051 583.84,197.551 585.5,200.5C 586.809,198.024 588.642,196.024 591,194.5C 591.75,195.126 592.584,195.626 593.5,196C 593.167,196.333 592.833,196.667 592.5,197C 594.999,197.286 597.165,197.119 599,196.5C 599.75,197.126 600.584,197.626 601.5,198C 598.202,198.487 595.202,199.653 592.5,201.5C 593.531,202.7 594.365,204.034 595,205.5C 595.333,204.833 595.667,204.167 596,203.5C 596.718,204.451 597.551,204.617 598.5,204C 597.465,202.493 597.632,200.993 599,199.5C 601.109,200.035 601.609,201.035 600.5,202.5C 602.576,203.1 604.576,203.433 606.5,203.5C 609.028,202.483 609.028,201.316 606.5,200C 608.101,199.727 609.601,199.227 611,198.5C 611.583,200.002 612.416,201.335 613.5,202.5C 615.156,204.022 616.323,203.689 617,201.5C 617.451,203.929 618.285,204.096 619.5,202C 618.446,200.612 618.28,199.112 619,197.5C 619.923,196.241 620.757,194.908 621.5,193.5C 622.167,194.167 622.833,194.833 623.5,195.5C 624.188,193.282 623.188,191.782 620.5,191C 621.624,190.751 622.624,190.251 623.5,189.5C 626.099,185.024 626.765,180.358 625.5,175.5C 623.473,175.662 621.473,175.495 619.5,175C 622.028,174.486 624.195,173.32 626,171.5C 625.198,168.489 625.365,165.489 626.5,162.5C 624.891,162.906 623.557,162.906 622.5,162.5C 623.655,161.05 625.155,160.05 627,159.5C 627.667,157.5 627.667,155.5 627,153.5C 625.768,156.755 623.768,157.088 621,154.5C 620.653,156.18 619.653,157.18 618,157.5C 616.348,157.14 614.682,156.807 613,156.5C 612.51,157.793 612.343,159.127 612.5,160.5C 614.492,160.672 616.158,160.005 617.5,158.5C 618.739,160.007 618.405,161.174 616.5,162C 617.167,162.333 617.833,162.667 618.5,163C 617.809,164.067 617.309,165.234 617,166.5C 614.266,165.638 614.099,164.805 616.5,164C 615.24,162.887 614.073,162.72 613,163.5C 610.944,162.417 609.611,160.75 609,158.5C 608.51,159.793 608.343,161.127 608.5,162.5C 605.203,162.671 604.869,162.005 607.5,160.5C 605.939,159.653 604.439,159.986 603,161.5C 602.333,160.5 602.333,159.5 603,158.5C 603.333,158.833 603.667,159.167 604,159.5C 604.249,158.376 604.749,157.376 605.5,156.5C 605.833,157.167 606.167,157.833 606.5,158.5C 609.406,157.913 611.072,156.246 611.5,153.5C 616.889,152.769 617.389,151.103 613,148.5C 612.009,149.939 610.676,150.939 609,151.5C 610.379,149.061 611.546,146.394 612.5,143.5C 610.723,143.214 609.056,142.547 607.5,141.5C 603.963,142.875 602.296,141.542 602.5,137.5C 604.807,137.014 606.973,137.014 609,137.5C 608.805,135.874 608.805,134.207 609,132.5C 609.333,132.833 609.667,133.167 610,133.5C 611,131.5 612,129.5 613,127.5C 613.36,129.608 614.027,131.608 615,133.5C 616.135,133.273 617.302,132.94 618.5,132.5C 615.619,131.085 613.953,128.751 613.5,125.5C 615.716,123.219 616.549,120.552 616,117.5C 615.667,117.833 615.333,118.167 615,118.5C 613.817,114.795 612.317,111.795 610.5,109.5C 609.932,111.435 608.765,112.768 607,113.5C 606.307,111.658 604.473,110.491 601.5,110C 603.301,109.683 603.634,109.016 602.5,108C 604.519,107.55 606.352,106.717 608,105.5C 608.688,104.668 608.521,104.002 607.5,103.5C 606.186,104.313 605.019,105.313 604,106.5C 603.692,105.692 603.192,105.025 602.5,104.5C 601.304,104.846 601.304,105.346 602.5,106C 597.2,108.271 596.533,107.604 600.5,104C 600,103.5 599.5,103 599,102.5C 596.605,104.081 596.105,106.081 597.5,108.5C 598.747,110.044 600.08,111.544 601.5,113C 600.351,114.744 599.017,114.911 597.5,113.5C 596.676,115.748 595.676,115.914 594.5,114C 595.34,112.334 594.84,112.167 593,113.5C 592.71,111.956 592.044,110.623 591,109.5C 589.913,111.932 589.413,111.598 589.5,108.5C 588.325,108.719 587.325,108.386 586.5,107.5C 586.833,107.167 587.167,106.833 587.5,106.5C 590.333,108.71 592.666,108.543 594.5,106C 591.354,105.89 590.354,104.557 591.5,102C 590.692,101.692 590.025,101.192 589.5,100.5C 590.186,98.9361 590.019,97.2694 589,95.5C 588.667,96.5 588.333,97.5 588,98.5C 586.601,97.7734 585.101,97.2734 583.5,97C 584.345,95.4419 583.679,94.4419 581.5,94C 582.416,93.6258 583.25,93.1258 584,92.5C 587.638,96.3351 588.472,96.0018 586.5,91.5C 588.423,90.6922 590.423,90.1922 592.5,90C 594.787,87.1568 594.121,84.8234 590.5,83C 591.517,81.9505 591.684,80.7839 591,79.5C 589.612,80.5536 588.112,80.7203 586.5,80C 587.46,78.5806 588.293,77.0806 589,75.5C 589.654,76.6956 590.154,76.6956 590.5,75.5C 588.528,73.5847 587.528,71.2514 587.5,68.5 Z"/></g>
<g><path style="opacity:1" fill="#fcfcfc" d="M 465.5,220.5 C 459.833,220.5 454.167,220.5 448.5,220.5C 422.279,212.191 411.446,194.191 416,166.5C 422.803,147.024 436.47,136.69 457,135.5C 479.375,137.032 493.375,148.699 499,170.5C 501.476,196.6 490.309,213.266 465.5,220.5 Z"/></g>
<g><path style="opacity:1" fill="#252620" d="M 451.5,157.5 C 470.94,156.106 479.773,165.106 478,184.5C 472.187,198.316 462.02,202.816 447.5,198C 436.231,190.301 433.398,180.135 439,167.5C 442.191,162.837 446.358,159.503 451.5,157.5 Z"/></g>
<g><path style="opacity:0.004" fill="#403a2c" d="M 124.5,200.5 C 125.833,201.167 125.833,201.167 124.5,200.5 Z"/></g>
<g><path style="opacity:1" fill="#fdfdfd" d="M 493.5,249.5 C 485.833,249.5 478.167,249.5 470.5,249.5C 470.389,248.883 470.056,248.383 469.5,248C 477.663,246.17 485.33,243.17 492.5,239C 506.921,230.091 516.587,217.591 521.5,201.5C 546.824,204.666 572.158,207.832 597.5,211C 597.957,211.414 598.291,211.914 598.5,212.5C 595.683,225.452 591.183,237.785 585,249.5C 554.575,249.836 524.075,249.836 493.5,249.5 Z"/></g>
<g><path style="opacity:0.004" fill="#403e2f" d="M 132.5,217.5 C 133.833,218.167 133.833,218.167 132.5,217.5 Z"/></g>
<g><path style="opacity:0.016" fill="#463f2e" d="M 625.5,223.5 C 626.833,224.167 626.833,224.167 625.5,223.5 Z"/></g>
<g><path style="opacity:0.004" fill="#414031" d="M 622.5,232.5 C 623.833,233.167 623.833,233.167 622.5,232.5 Z"/></g>
<g><path style="opacity:0.012" fill="#403e2d" d="M 274.5,242.5 C 275.833,243.167 275.833,243.167 274.5,242.5 Z"/></g>
<g><path style="opacity:1" fill="#636462" d="M 332.5,245.5 C 341.266,246.14 349.932,246.807 358.5,247.5C 349.435,248.136 340.769,247.47 332.5,245.5 Z"/></g>
<g><path style="opacity:0.012" fill="#413f2f" d="M 636.5,248.5 C 637.833,249.167 637.833,249.167 636.5,248.5 Z"/></g>
<g><path style="opacity:0.004" fill="#413e30" d="M 654.5,248.5 C 655.833,249.167 655.833,249.167 654.5,248.5 Z"/></g>
<g><path style="opacity:0.276" fill="#696457" d="M 614.5,249.5 C 631.833,250.167 649.167,250.833 666.5,251.5C 648.821,251.833 631.154,251.5 613.5,250.5C 613.624,249.893 613.957,249.56 614.5,249.5 Z"/></g>
<g><path style="opacity:1" fill="#242620" d="M 289.5,245.5 C 272.152,245.452 254.818,245.952 237.5,247C 235.695,247.972 234.028,249.139 232.5,250.5C 233.752,252.001 234.752,253.668 235.5,255.5C 237.588,254.821 239.588,254.488 241.5,254.5C 242.893,255.863 244.559,256.696 246.5,257C 245.833,257.333 245.167,257.667 244.5,258C 248.166,260.403 248.832,263.236 246.5,266.5C 248.594,268.414 248.594,270.581 246.5,273C 245.833,273.667 245.167,273.667 244.5,273C 246.285,271.407 246.452,269.907 245,268.5C 243.214,270.099 241.047,270.933 238.5,271C 239.624,271.249 240.624,271.749 241.5,272.5C 240.738,272.911 239.738,273.077 238.5,273C 239.505,274.507 240.838,275.673 242.5,276.5C 241.471,276.296 240.471,276.796 239.5,278C 242.464,278.84 242.797,279.84 240.5,281C 242.419,282.934 243.919,282.767 245,280.5C 245.585,282.129 246.419,283.629 247.5,285C 242.458,287.457 242.792,289.957 248.5,292.5C 247.443,292.906 246.109,292.906 244.5,292.5C 244.472,294.582 245.139,296.416 246.5,298C 244.063,299.279 243.563,300.779 245,302.5C 247.405,299.372 250.405,298.372 254,299.5C 254.75,298.874 255.584,298.374 256.5,298C 254.794,293.299 251.461,290.299 246.5,289C 249.583,288.214 251.749,286.381 253,283.5C 253.92,283.93 254.753,284.264 255.5,284.5C 253.009,285.541 253.009,286.374 255.5,287C 254.346,287.914 254.513,288.747 256,289.5C 256.98,287.741 257.647,286.074 258,284.5C 258.5,285.5 259,286.5 259.5,287.5C 256.942,289.12 256.942,290.62 259.5,292C 258.5,292.333 257.5,292.667 256.5,293C 258.402,293.199 259.902,294.033 261,295.5C 261.605,293.519 262.605,293.185 264,294.5C 264,293.167 264,291.833 264,290.5C 265,291.833 266,293.167 267,294.5C 266.281,291.481 266.448,288.481 267.5,285.5C 276.217,323.913 284.384,362.58 292,401.5C 292.5,402 293,402.5 293.5,403C 357.833,415.333 422.167,427.667 486.5,440C 496.519,440.666 506.519,440.499 516.5,439.5C 515.737,440.268 514.737,440.768 513.5,441C 515.193,442.713 516.526,444.713 517.5,447C 515.222,445.952 513.056,445.119 511,444.5C 510.517,445.448 510.351,446.448 510.5,447.5C 513.073,448.493 515.74,449.326 518.5,450C 517.975,450.692 517.308,451.192 516.5,451.5C 515.575,450.359 514.741,450.359 514,451.5C 512.757,449.167 511.091,448.5 509,449.5C 507.371,448.435 506.204,447.101 505.5,445.5C 504.315,446.853 502.981,448.02 501.5,449C 502.749,450.824 503.915,450.657 505,448.5C 506.11,450.243 507.61,451.576 509.5,452.5C 507.882,454.836 506.048,454.836 504,452.5C 503.667,453.167 503.333,453.833 503,454.5C 502.077,453.241 501.243,451.908 500.5,450.5C 499.193,451.816 497.693,452.816 496,453.5C 495.308,452.975 494.808,452.308 494.5,451.5C 496.387,449.112 497.054,446.612 496.5,444C 500.223,443.566 500.39,442.732 497,441.5C 495.497,443.83 493.664,444.83 491.5,444.5C 492.833,445.5 492.833,446.5 491.5,447.5C 491.833,447.833 492.167,448.167 492.5,448.5C 493.167,447.833 493.833,447.167 494.5,446.5C 495.521,447.002 495.688,447.668 495,448.5C 492.305,449.961 489.305,451.628 486,453.5C 485.667,453.167 485.333,452.833 485,452.5C 484.333,453.833 483.667,455.167 483,456.5C 481.318,455.135 481.151,453.635 482.5,452C 481.833,451.667 481.167,451.333 480.5,451C 481.451,450.282 481.617,449.449 481,448.5C 479.933,449.191 478.766,449.691 477.5,450C 476.987,451.576 477.654,452.909 479.5,454C 479.167,454.5 478.833,455 478.5,455.5C 477.108,454.395 475.941,453.061 475,451.5C 473.333,452.833 471.667,452.833 470,451.5C 470.93,455.059 473.43,456.892 477.5,457C 476.833,457.333 476.167,457.667 475.5,458C 476.167,461.333 478.167,463.333 481.5,464C 481.043,464.414 480.709,464.914 480.5,465.5C 481.685,466.853 483.019,468.02 484.5,469C 483.234,469.309 482.067,469.809 481,470.5C 480.02,469.019 478.853,467.685 477.5,466.5C 474.724,466.054 472.224,465.054 470,463.5C 469.493,464.996 469.993,466.163 471.5,467C 470.009,469.022 470.342,470.688 472.5,472C 471.552,472.483 470.552,472.649 469.5,472.5C 463.186,470.337 456.852,468.503 450.5,467C 408.952,511.886 366.618,556.22 323.5,600C 296.116,615.865 271.95,612.032 251,588.5C 242.775,576.381 239.775,563.048 242,548.5C 247.47,508.567 253.303,468.734 259.5,429C 250.15,427.833 241.484,424.833 233.5,420C 231.291,418.127 229.458,415.96 228,413.5C 193.471,341.297 159.305,269.464 125.5,198C 89.8164,192.442 54.1497,186.775 18.5,181C 4.00076,175.198 -1.16591,164.698 3,149.5C 7.42267,140.701 14.5893,136.034 24.5,135.5C 60.1997,140.783 95.8663,146.283 131.5,152C 142.77,154.599 150.27,161.433 154,172.5C 187.926,246.681 222.093,320.681 256.5,394.5C 257.736,395.246 259.07,395.579 260.5,395.5C 252.781,358.074 244.615,320.741 236,283.5C 222.233,275.766 219.4,265.099 227.5,251.5C 232.626,246.12 238.959,243.454 246.5,243.5C 260.992,244.099 275.325,244.766 289.5,245.5 Z M 379.5,495.5 C 355.316,521.516 330.982,547.35 306.5,573C 296.023,579.836 286.523,578.67 278,569.5C 274.666,562.533 273.666,555.2 275,547.5C 280.128,509.736 285.794,472.069 292,434.5C 332.88,442.509 373.713,450.843 414.5,459.5C 402.785,471.547 391.118,483.547 379.5,495.5 Z"/></g>
<g><path style="opacity:0.004" fill="#40392f" d="M 197.5,264.5 C 198.833,265.167 198.833,265.167 197.5,264.5 Z"/></g>
<g><path style="opacity:0.004" fill="#424030" d="M 190.5,248.5 C 191.833,249.167 191.833,249.167 190.5,248.5 Z"/></g>
<g><path style="opacity:1" fill="#61b14b" d="M 502.5,287.5 C 559.49,288.874 616.49,290.041 673.5,291C 674.252,291.671 674.586,292.504 674.5,293.5C 637.699,333.805 601.032,374.305 564.5,415C 550.249,426.625 534.249,434.792 516.5,439.5C 506.519,440.499 496.519,440.666 486.5,440C 422.167,427.667 357.833,415.333 293.5,403C 293,402.5 292.5,402 292,401.5C 284.384,362.58 276.217,323.913 267.5,285.5C 267.611,284.883 267.944,284.383 268.5,284C 346.494,285.069 424.494,286.236 502.5,287.5 Z"/></g>
<g><path style="opacity:0.004" fill="#403a2d" d="M 164.5,285.5 C 165.833,286.167 165.833,286.167 164.5,285.5 Z"/></g>
<g><path style="opacity:0.004" fill="#3d3a2e" d="M 235.5,289.5 C 236.833,290.167 236.833,290.167 235.5,289.5 Z"/></g>
<g><path style="opacity:0.016" fill="#464130" d="M 172.5,301.5 C 173.833,302.167 173.833,302.167 172.5,301.5 Z"/></g>
<g><path style="opacity:0.004" fill="#3b3b2d" d="M 688.5,322.5 C 689.833,323.167 689.833,323.167 688.5,322.5 Z"/></g>
<g><path style="opacity:0.008" fill="#3e3d2e" d="M 231.5,337.5 C 232.833,338.167 232.833,338.167 231.5,337.5 Z"/></g>
<g><path style="opacity:0.004" fill="#3f3c2d" d="M 235.5,346.5 C 236.833,347.167 236.833,347.167 235.5,346.5 Z"/></g>
<g><path style="opacity:0.02" fill="#413f2e" d="M 196.5,352.5 C 197.833,353.167 197.833,353.167 196.5,352.5 Z"/></g>
<g><path style="opacity:0.004" fill="#41402d" d="M 197.5,354.5 C 198.833,355.167 198.833,355.167 197.5,354.5 Z"/></g>
<g><path style="opacity:0.004" fill="#a49267" d="M 9.5,356.5 C 10.8333,357.167 10.8333,357.167 9.5,356.5 Z"/></g>
<g><path style="opacity:0.02" fill="#a49167" d="M 11.5,358.5 C 12.8333,359.167 12.8333,359.167 11.5,358.5 Z"/></g>
<g><path style="opacity:0.008" fill="#40402c" d="M 656.5,358.5 C 657.833,359.167 657.833,359.167 656.5,358.5 Z"/></g>
<g><path style="opacity:0.02" fill="#a39166" d="M 17.5,363.5 C 18.8333,364.167 18.8333,364.167 17.5,363.5 Z"/></g>
<g><path style="opacity:0.004" fill="#3d3c2b" d="M 252.5,368.5 C 253.833,369.167 253.833,369.167 252.5,368.5 Z"/></g>
<g><path style="opacity:0.008" fill="#3e3c30" d="M 246.5,369.5 C 247.833,370.167 247.833,370.167 246.5,369.5 Z"/></g>
<g><path style="opacity:0.004" fill="#3f3d2c" d="M 205.5,370.5 C 206.833,371.167 206.833,371.167 205.5,370.5 Z"/></g>
<g><path style="opacity:0.004" fill="#423c30" d="M 641.5,375.5 C 642.833,376.167 642.833,376.167 641.5,375.5 Z"/></g>
<g><path style="opacity:0.004" fill="#453d2e" d="M 220.5,402.5 C 221.833,403.167 221.833,403.167 220.5,402.5 Z"/></g>
<g><path style="opacity:0.004" fill="#504c3a" d="M 752.5,503.5 C 752.5,503.833 752.5,504.167 752.5,504.5C 751.83,504.019 751.83,503.685 752.5,503.5 Z"/></g>
<g><path style="opacity:0.012" fill="#413d2e" d="M 531.5,507.5 C 532.833,508.167 532.833,508.167 531.5,507.5 Z"/></g>
<g><path style="opacity:0.004" fill="#474331" d="M 244.5,514.5 C 245.833,515.167 245.833,515.167 244.5,514.5 Z"/></g>
<g><path style="opacity:0.008" fill="#474133" d="M 243.5,521.5 C 244.525,521.897 244.692,522.563 244,523.5C 243.536,522.906 243.369,522.239 243.5,521.5 Z"/></g>
<g><path style="opacity:0.004" fill="#4e4637" d="M 752.5,527.5 C 752.5,527.833 752.5,528.167 752.5,528.5C 751.83,528.019 751.83,527.685 752.5,527.5 Z"/></g>
<g><path style="opacity:0.008" fill="#44422e" d="M 531.5,529.5 C 532.833,530.167 532.833,530.167 531.5,529.5 Z"/></g>
<g><path style="opacity:0.012" fill="#93825a" d="M 146.5,532.5 C 147.833,533.167 147.833,533.167 146.5,532.5 Z"/></g>
<g><path style="opacity:0.008" fill="#444132" d="M 532.5,535.5 C 533.833,536.167 533.833,536.167 532.5,535.5 Z"/></g>
<g><path style="opacity:0.004" fill="#504f36" d="M 750.5,536.5 C 751.833,537.167 751.833,537.167 750.5,536.5 Z"/></g>
<g><path style="opacity:0.008" fill="#524935" d="M 747.5,546.5 C 748.833,547.167 748.833,547.167 747.5,546.5 Z"/></g>
<g><path style="opacity:0.004" fill="#464131" d="M 538.5,557.5 C 539.833,558.167 539.833,558.167 538.5,557.5 Z"/></g>
<g><path style="opacity:1" fill="#252620" d="M 698.5,310.5 C 694.79,314.208 691.457,318.208 688.5,322.5C 677.491,334.177 666.824,346.177 656.5,358.5C 651.157,363.844 646.157,369.511 641.5,375.5C 631.366,386.472 621.366,397.639 611.5,409C 659.808,399.21 699.308,413.376 730,451.5C 754.147,487.303 757.48,524.97 740,564.5C 718.807,603.107 686.14,623.773 642,626.5C 585.502,622.323 549.835,592.99 535,538.5C 532.835,525.125 533.002,511.791 535.5,498.5C 535.167,497.833 534.833,497.167 534.5,496.5C 512.735,488.471 491.068,480.471 469.5,472.5C 470.552,472.649 471.552,472.483 472.5,472C 470.342,470.688 470.009,469.022 471.5,467C 469.993,466.163 469.493,464.996 470,463.5C 472.224,465.054 474.724,466.054 477.5,466.5C 478.853,467.685 480.02,469.019 481,470.5C 482.067,469.809 483.234,469.309 484.5,469C 483.019,468.02 481.685,466.853 480.5,465.5C 480.709,464.914 481.043,464.414 481.5,464C 478.167,463.333 476.167,461.333 475.5,458C 476.167,457.667 476.833,457.333 477.5,457C 473.43,456.892 470.93,455.059 470,451.5C 471.667,452.833 473.333,452.833 475,451.5C 475.941,453.061 477.108,454.395 478.5,455.5C 478.833,455 479.167,454.5 479.5,454C 477.654,452.909 476.987,451.576 477.5,450C 478.766,449.691 479.933,449.191 481,448.5C 481.617,449.449 481.451,450.282 480.5,451C 481.167,451.333 481.833,451.667 482.5,452C 481.151,453.635 481.318,455.135 483,456.5C 483.667,455.167 484.333,453.833 485,452.5C 485.333,452.833 485.667,453.167 486,453.5C 489.305,451.628 492.305,449.961 495,448.5C 495.688,447.668 495.521,447.002 494.5,446.5C 493.833,447.167 493.167,447.833 492.5,448.5C 492.167,448.167 491.833,447.833 491.5,447.5C 492.833,446.5 492.833,445.5 491.5,444.5C 493.664,444.83 495.497,443.83 497,441.5C 500.39,442.732 500.223,443.566 496.5,444C 497.054,446.612 496.387,449.112 494.5,451.5C 494.808,452.308 495.308,452.975 496,453.5C 497.693,452.816 499.193,451.816 500.5,450.5C 501.243,451.908 502.077,453.241 503,454.5C 503.333,453.833 503.667,453.167 504,452.5C 506.048,454.836 507.882,454.836 509.5,452.5C 507.61,451.576 506.11,450.243 505,448.5C 503.915,450.657 502.749,450.824 501.5,449C 502.981,448.02 504.315,446.853 505.5,445.5C 506.204,447.101 507.371,448.435 509,449.5C 511.091,448.5 512.757,449.167 514,451.5C 514.741,450.359 515.575,450.359 516.5,451.5C 517.308,451.192 517.975,450.692 518.5,450C 515.74,449.326 513.073,448.493 510.5,447.5C 510.351,446.448 510.517,445.448 511,444.5C 513.056,445.119 515.222,445.952 517.5,447C 516.526,444.713 515.193,442.713 513.5,441C 514.737,440.768 515.737,440.268 516.5,439.5C 534.249,434.792 550.249,426.625 564.5,415C 601.032,374.305 637.699,333.805 674.5,293.5C 677.647,297.286 679.813,296.952 681,292.5C 683.732,296.167 682.899,298.334 678.5,299C 680.101,299.273 681.601,299.773 683,300.5C 683.333,299.5 683.667,298.5 684,297.5C 686.201,298.996 688.701,299.996 691.5,300.5C 692.855,301.675 692.688,302.675 691,303.5C 689.951,302.483 688.784,302.316 687.5,303C 688.522,305.316 690.022,305.816 692,304.5C 692.333,305.5 692.667,306.5 693,307.5C 694.113,306.289 695.28,306.289 696.5,307.5C 697.711,308.274 697.711,309.107 696.5,310C 697.094,310.464 697.761,310.631 698.5,310.5 Z M 549.5,457.5 C 550.239,457.369 550.906,457.536 551.5,458C 549.108,460.728 547.108,463.728 545.5,467C 541.682,466.843 538.015,465.843 534.5,464C 540.078,462.871 545.078,460.704 549.5,457.5 Z M 600.5,474.5 C 611.774,462.01 625.941,456.01 643,456.5C 679.209,459.542 699.042,479.209 702.5,515.5C 698.462,554.713 676.962,575.047 638,576.5C 603.445,571.288 584.945,551.455 582.5,517C 593.258,520.032 603.925,523.698 614.5,528C 626.305,544.825 641.305,548.492 659.5,539C 670.443,527.193 671.943,514.36 664,500.5C 654.774,488.746 642.94,485.08 628.5,489.5C 617.719,485.962 607.052,482.129 596.5,478C 597.705,476.624 599.038,475.458 600.5,474.5 Z"/></g>
<g><path style="opacity:0.008" fill="#4b4333" d="M 588.5,613.5 C 589.833,614.167 589.833,614.167 588.5,613.5 Z"/></g>
</svg>
